<?xml version="1.0" encoding="UTF-8" standalone="no"?>
<!DOCTYPE svg PUBLIC "-//W3C//DTD SVG 1.1//EN"
 "http://www.w3.org/Graphics/SVG/1.1/DTD/svg11.dtd">
<!-- Generated by graphviz version 2.38.0 (20140413.2041)
 -->
<!-- Title: git_objects Pages: 1 -->
<svg width="206pt" height="260pt"
 viewBox="0.00 0.00 206.00 260.00" xmlns="http://www.w3.org/2000/svg" xmlns:xlink="http://www.w3.org/1999/xlink">
<g id="graph0" class="graph" transform="scale(1 1) rotate(0) translate(4 256)">
<title>git_objects</title>
<polygon fill="white" stroke="none" points="-4,4 -4,-256 202,-256 202,4 -4,4"/>
<!-- reference -->
<g id="node1" class="node"><title>reference</title>
<polygon fill="none" stroke="black" points="133,-252 65,-252 65,-216 133,-216 133,-252"/>
<text text-anchor="middle" x="99" y="-230.3" font-family="Times New Roman,serif" font-size="14.00">reference</text>
</g>
<!-- commit -->
<g id="node2" class="node"><title>commit</title>
<ellipse fill="none" stroke="black" cx="99" cy="-162" rx="38.1938" ry="18"/>
<text text-anchor="middle" x="99" y="-158.3" font-family="Times New Roman,serif" font-size="14.00">commit</text>
</g>
<!-- reference&#45;&gt;commit -->
<g id="edge1" class="edge"><title>reference&#45;&gt;commit</title>
<path fill="none" stroke="black" d="M99,-215.697C99,-207.983 99,-198.712 99,-190.112"/>
<polygon fill="black" stroke="black" points="102.5,-190.104 99,-180.104 95.5001,-190.104 102.5,-190.104"/>
</g>
<!-- tree -->
<g id="node3" class="node"><title>tree</title>
<ellipse fill="none" stroke="black" cx="99" cy="-90" rx="27" ry="18"/>
<text text-anchor="middle" x="99" y="-86.3" font-family="Times New Roman,serif" font-size="14.00">tree</text>
</g>
<!-- commit&#45;&gt;tree -->
<g id="edge2" class="edge"><title>commit&#45;&gt;tree</title>
<path fill="none" stroke="black" d="M99,-143.697C99,-135.983 99,-126.712 99,-118.112"/>
<polygon fill="black" stroke="black" points="102.5,-118.104 99,-108.104 95.5001,-118.104 102.5,-118.104"/>
</g>
<!-- file1 -->
<g id="node4" class="node"><title>file1</title>
<ellipse fill="none" stroke="black" cx="27" cy="-18" rx="27" ry="18"/>
<text text-anchor="middle" x="27" y="-14.3" font-family="Times New Roman,serif" font-size="14.00">file1</text>
</g>
<!-- tree&#45;&gt;file1 -->
<g id="edge3" class="edge"><title>tree&#45;&gt;file1</title>
<path fill="none" stroke="black" d="M84.4297,-74.8345C74.2501,-64.9376 60.4761,-51.5462 48.9694,-40.3591"/>
<polygon fill="black" stroke="black" points="51.4055,-37.8461 41.7957,-33.3847 46.5259,-42.865 51.4055,-37.8461"/>
</g>
<!-- file2 -->
<g id="node5" class="node"><title>file2</title>
<ellipse fill="none" stroke="black" cx="99" cy="-18" rx="27" ry="18"/>
<text text-anchor="middle" x="99" y="-14.3" font-family="Times New Roman,serif" font-size="14.00">file2</text>
</g>
<!-- tree&#45;&gt;file2 -->
<g id="edge4" class="edge"><title>tree&#45;&gt;file2</title>
<path fill="none" stroke="black" d="M99,-71.6966C99,-63.9827 99,-54.7125 99,-46.1124"/>
<polygon fill="black" stroke="black" points="102.5,-46.1043 99,-36.1043 95.5001,-46.1044 102.5,-46.1043"/>
</g>
<!-- file3 -->
<g id="node6" class="node"><title>file3</title>
<ellipse fill="none" stroke="black" cx="171" cy="-18" rx="27" ry="18"/>
<text text-anchor="middle" x="171" y="-14.3" font-family="Times New Roman,serif" font-size="14.00">file3</text>
</g>
<!-- tree&#45;&gt;file3 -->
<g id="edge5" class="edge"><title>tree&#45;&gt;file3</title>
<path fill="none" stroke="black" d="M113.57,-74.8345C123.75,-64.9376 137.524,-51.5462 149.031,-40.3591"/>
<polygon fill="black" stroke="black" points="151.474,-42.865 156.204,-33.3847 146.595,-37.8461 151.474,-42.865"/>
</g>
</g>
</svg>
