<?xml version="1.0" encoding="UTF-8" standalone="no"?>
<!DOCTYPE svg PUBLIC "-//W3C//DTD SVG 1.1//EN"
 "http://www.w3.org/Graphics/SVG/1.1/DTD/svg11.dtd">
<!-- Generated by graphviz version 2.38.0 (20140413.2041)
 -->
<!-- Title: git_objects Pages: 1 -->
<svg width="712pt" height="315pt"
 viewBox="0.00 0.00 712.00 315.00" xmlns="http://www.w3.org/2000/svg" xmlns:xlink="http://www.w3.org/1999/xlink">
<g id="graph0" class="graph" transform="scale(1 1) rotate(0) translate(4 311)">
<title>git_objects</title>
<polygon fill="white" stroke="none" points="-4,4 -4,-311 708,-311 708,4 -4,4"/>
<g id="clust3" class="cluster"><title>cluster3</title>
<polygon fill="none" stroke="black" points="472,-8 472,-299 696,-299 696,-8 472,-8"/>
<text text-anchor="middle" x="584" y="-283.8" font-family="Times New Roman,serif" font-size="14.00">Carol</text>
</g>
<g id="clust1" class="cluster"><title>cluster1</title>
<polygon fill="none" stroke="black" points="8,-8 8,-299 232,-299 232,-8 8,-8"/>
<text text-anchor="middle" x="120" y="-283.8" font-family="Times New Roman,serif" font-size="14.00">Alice</text>
</g>
<g id="clust2" class="cluster"><title>cluster2</title>
<polygon fill="none" stroke="black" points="240,-8 240,-299 464,-299 464,-8 240,-8"/>
<text text-anchor="middle" x="352" y="-283.8" font-family="Times New Roman,serif" font-size="14.00">Bob</text>
</g>
<!-- a_reference -->
<g id="node1" class="node"><title>a_reference</title>
<polygon fill="none" stroke="black" points="154,-268 86,-268 86,-232 154,-232 154,-268"/>
<text text-anchor="middle" x="120" y="-246.3" font-family="Times New Roman,serif" font-size="14.00">reference</text>
</g>
<!-- a_commit -->
<g id="node2" class="node"><title>a_commit</title>
<ellipse fill="none" stroke="black" cx="120" cy="-178" rx="38.1938" ry="18"/>
<text text-anchor="middle" x="120" y="-174.3" font-family="Times New Roman,serif" font-size="14.00">commit</text>
</g>
<!-- a_reference&#45;&gt;a_commit -->
<g id="edge1" class="edge"><title>a_reference&#45;&gt;a_commit</title>
<path fill="none" stroke="black" d="M120,-231.697C120,-223.983 120,-214.712 120,-206.112"/>
<polygon fill="black" stroke="black" points="123.5,-206.104 120,-196.104 116.5,-206.104 123.5,-206.104"/>
</g>
<!-- a_tree -->
<g id="node3" class="node"><title>a_tree</title>
<ellipse fill="none" stroke="black" cx="120" cy="-106" rx="27" ry="18"/>
<text text-anchor="middle" x="120" y="-102.3" font-family="Times New Roman,serif" font-size="14.00">tree</text>
</g>
<!-- a_commit&#45;&gt;a_tree -->
<g id="edge2" class="edge"><title>a_commit&#45;&gt;a_tree</title>
<path fill="none" stroke="black" d="M120,-159.697C120,-151.983 120,-142.712 120,-134.112"/>
<polygon fill="black" stroke="black" points="123.5,-134.104 120,-124.104 116.5,-134.104 123.5,-134.104"/>
</g>
<!-- a_file1 -->
<g id="node4" class="node"><title>a_file1</title>
<ellipse fill="none" stroke="black" cx="45" cy="-34" rx="28.6953" ry="18"/>
<text text-anchor="middle" x="45" y="-30.3" font-family="Times New Roman,serif" font-size="14.00">file 1</text>
</g>
<!-- a_tree&#45;&gt;a_file1 -->
<g id="edge3" class="edge"><title>a_tree&#45;&gt;a_file1</title>
<path fill="none" stroke="black" d="M104.823,-90.8345C94.2188,-80.9376 79.871,-67.5462 67.8847,-56.3591"/>
<polygon fill="black" stroke="black" points="70.1109,-53.6492 60.4122,-49.3847 65.3347,-58.7667 70.1109,-53.6492"/>
</g>
<!-- a_file2 -->
<g id="node5" class="node"><title>a_file2</title>
<ellipse fill="none" stroke="black" cx="120" cy="-34" rx="28.6953" ry="18"/>
<text text-anchor="middle" x="120" y="-30.3" font-family="Times New Roman,serif" font-size="14.00">file 2</text>
</g>
<!-- a_tree&#45;&gt;a_file2 -->
<g id="edge4" class="edge"><title>a_tree&#45;&gt;a_file2</title>
<path fill="none" stroke="black" d="M120,-87.6966C120,-79.9827 120,-70.7125 120,-62.1124"/>
<polygon fill="black" stroke="black" points="123.5,-62.1043 120,-52.1043 116.5,-62.1044 123.5,-62.1043"/>
</g>
<!-- a_file3 -->
<g id="node6" class="node"><title>a_file3</title>
<ellipse fill="none" stroke="black" cx="195" cy="-34" rx="28.6953" ry="18"/>
<text text-anchor="middle" x="195" y="-30.3" font-family="Times New Roman,serif" font-size="14.00">file 3</text>
</g>
<!-- a_tree&#45;&gt;a_file3 -->
<g id="edge5" class="edge"><title>a_tree&#45;&gt;a_file3</title>
<path fill="none" stroke="black" d="M135.177,-90.8345C145.781,-80.9376 160.129,-67.5462 172.115,-56.3591"/>
<polygon fill="black" stroke="black" points="174.665,-58.7667 179.588,-49.3847 169.889,-53.6492 174.665,-58.7667"/>
</g>
<!-- b_reference -->
<g id="node7" class="node"><title>b_reference</title>
<polygon fill="none" stroke="black" points="386,-268 318,-268 318,-232 386,-232 386,-268"/>
<text text-anchor="middle" x="352" y="-246.3" font-family="Times New Roman,serif" font-size="14.00">reference</text>
</g>
<!-- b_commit -->
<g id="node8" class="node"><title>b_commit</title>
<ellipse fill="none" stroke="black" cx="352" cy="-178" rx="38.1938" ry="18"/>
<text text-anchor="middle" x="352" y="-174.3" font-family="Times New Roman,serif" font-size="14.00">commit</text>
</g>
<!-- b_reference&#45;&gt;b_commit -->
<g id="edge6" class="edge"><title>b_reference&#45;&gt;b_commit</title>
<path fill="none" stroke="black" d="M352,-231.697C352,-223.983 352,-214.712 352,-206.112"/>
<polygon fill="black" stroke="black" points="355.5,-206.104 352,-196.104 348.5,-206.104 355.5,-206.104"/>
</g>
<!-- b_tree -->
<g id="node9" class="node"><title>b_tree</title>
<ellipse fill="none" stroke="black" cx="352" cy="-106" rx="27" ry="18"/>
<text text-anchor="middle" x="352" y="-102.3" font-family="Times New Roman,serif" font-size="14.00">tree</text>
</g>
<!-- b_commit&#45;&gt;b_tree -->
<g id="edge7" class="edge"><title>b_commit&#45;&gt;b_tree</title>
<path fill="none" stroke="black" d="M352,-159.697C352,-151.983 352,-142.712 352,-134.112"/>
<polygon fill="black" stroke="black" points="355.5,-134.104 352,-124.104 348.5,-134.104 355.5,-134.104"/>
</g>
<!-- b_file1 -->
<g id="node10" class="node"><title>b_file1</title>
<ellipse fill="none" stroke="black" cx="277" cy="-34" rx="28.6953" ry="18"/>
<text text-anchor="middle" x="277" y="-30.3" font-family="Times New Roman,serif" font-size="14.00">file 1</text>
</g>
<!-- b_tree&#45;&gt;b_file1 -->
<g id="edge8" class="edge"><title>b_tree&#45;&gt;b_file1</title>
<path fill="none" stroke="black" d="M336.823,-90.8345C326.219,-80.9376 311.871,-67.5462 299.885,-56.3591"/>
<polygon fill="black" stroke="black" points="302.111,-53.6492 292.412,-49.3847 297.335,-58.7667 302.111,-53.6492"/>
</g>
<!-- b_file2 -->
<g id="node11" class="node"><title>b_file2</title>
<ellipse fill="none" stroke="black" cx="352" cy="-34" rx="28.6953" ry="18"/>
<text text-anchor="middle" x="352" y="-30.3" font-family="Times New Roman,serif" font-size="14.00">file 2</text>
</g>
<!-- b_tree&#45;&gt;b_file2 -->
<g id="edge9" class="edge"><title>b_tree&#45;&gt;b_file2</title>
<path fill="none" stroke="black" d="M352,-87.6966C352,-79.9827 352,-70.7125 352,-62.1124"/>
<polygon fill="black" stroke="black" points="355.5,-62.1043 352,-52.1043 348.5,-62.1044 355.5,-62.1043"/>
</g>
<!-- b_file3 -->
<g id="node12" class="node"><title>b_file3</title>
<ellipse fill="none" stroke="black" cx="427" cy="-34" rx="28.6953" ry="18"/>
<text text-anchor="middle" x="427" y="-30.3" font-family="Times New Roman,serif" font-size="14.00">file 3</text>
</g>
<!-- b_tree&#45;&gt;b_file3 -->
<g id="edge10" class="edge"><title>b_tree&#45;&gt;b_file3</title>
<path fill="none" stroke="black" d="M367.177,-90.8345C377.781,-80.9376 392.129,-67.5462 404.115,-56.3591"/>
<polygon fill="black" stroke="black" points="406.665,-58.7667 411.588,-49.3847 401.889,-53.6492 406.665,-58.7667"/>
</g>
<!-- c_reference -->
<g id="node13" class="node"><title>c_reference</title>
<polygon fill="none" stroke="black" points="618,-268 550,-268 550,-232 618,-232 618,-268"/>
<text text-anchor="middle" x="584" y="-246.3" font-family="Times New Roman,serif" font-size="14.00">reference</text>
</g>
<!-- c_commit -->
<g id="node14" class="node"><title>c_commit</title>
<ellipse fill="none" stroke="black" cx="584" cy="-178" rx="38.1938" ry="18"/>
<text text-anchor="middle" x="584" y="-174.3" font-family="Times New Roman,serif" font-size="14.00">commit</text>
</g>
<!-- c_reference&#45;&gt;c_commit -->
<g id="edge11" class="edge"><title>c_reference&#45;&gt;c_commit</title>
<path fill="none" stroke="black" d="M584,-231.697C584,-223.983 584,-214.712 584,-206.112"/>
<polygon fill="black" stroke="black" points="587.5,-206.104 584,-196.104 580.5,-206.104 587.5,-206.104"/>
</g>
<!-- c_tree -->
<g id="node15" class="node"><title>c_tree</title>
<ellipse fill="none" stroke="black" cx="584" cy="-106" rx="27" ry="18"/>
<text text-anchor="middle" x="584" y="-102.3" font-family="Times New Roman,serif" font-size="14.00">tree</text>
</g>
<!-- c_commit&#45;&gt;c_tree -->
<g id="edge12" class="edge"><title>c_commit&#45;&gt;c_tree</title>
<path fill="none" stroke="black" d="M584,-159.697C584,-151.983 584,-142.712 584,-134.112"/>
<polygon fill="black" stroke="black" points="587.5,-134.104 584,-124.104 580.5,-134.104 587.5,-134.104"/>
</g>
<!-- c_file1 -->
<g id="node16" class="node"><title>c_file1</title>
<ellipse fill="none" stroke="black" cx="509" cy="-34" rx="28.6953" ry="18"/>
<text text-anchor="middle" x="509" y="-30.3" font-family="Times New Roman,serif" font-size="14.00">file 1</text>
</g>
<!-- c_tree&#45;&gt;c_file1 -->
<g id="edge13" class="edge"><title>c_tree&#45;&gt;c_file1</title>
<path fill="none" stroke="black" d="M568.823,-90.8345C558.219,-80.9376 543.871,-67.5462 531.885,-56.3591"/>
<polygon fill="black" stroke="black" points="534.111,-53.6492 524.412,-49.3847 529.335,-58.7667 534.111,-53.6492"/>
</g>
<!-- c_file2 -->
<g id="node17" class="node"><title>c_file2</title>
<ellipse fill="none" stroke="black" cx="584" cy="-34" rx="28.6953" ry="18"/>
<text text-anchor="middle" x="584" y="-30.3" font-family="Times New Roman,serif" font-size="14.00">file 2</text>
</g>
<!-- c_tree&#45;&gt;c_file2 -->
<g id="edge14" class="edge"><title>c_tree&#45;&gt;c_file2</title>
<path fill="none" stroke="black" d="M584,-87.6966C584,-79.9827 584,-70.7125 584,-62.1124"/>
<polygon fill="black" stroke="black" points="587.5,-62.1043 584,-52.1043 580.5,-62.1044 587.5,-62.1043"/>
</g>
<!-- c_file3 -->
<g id="node18" class="node"><title>c_file3</title>
<ellipse fill="none" stroke="black" cx="659" cy="-34" rx="28.6953" ry="18"/>
<text text-anchor="middle" x="659" y="-30.3" font-family="Times New Roman,serif" font-size="14.00">file 3</text>
</g>
<!-- c_tree&#45;&gt;c_file3 -->
<g id="edge15" class="edge"><title>c_tree&#45;&gt;c_file3</title>
<path fill="none" stroke="black" d="M599.177,-90.8345C609.781,-80.9376 624.129,-67.5462 636.115,-56.3591"/>
<polygon fill="black" stroke="black" points="638.665,-58.7667 643.588,-49.3847 633.889,-53.6492 638.665,-58.7667"/>
</g>
</g>
</svg>
