<?xml version="1.0" encoding="UTF-8" standalone="no"?>
<!DOCTYPE svg PUBLIC "-//W3C//DTD SVG 1.1//EN"
 "http://www.w3.org/Graphics/SVG/1.1/DTD/svg11.dtd">
<!-- Generated by graphviz version 2.38.0 (20140413.2041)
 -->
<!-- Title: git_objects Pages: 1 -->
<svg width="278pt" height="204pt"
 viewBox="0.00 0.00 278.00 204.00" xmlns="http://www.w3.org/2000/svg" xmlns:xlink="http://www.w3.org/1999/xlink">
<g id="graph0" class="graph" transform="scale(1 1) rotate(0) translate(4 200)">
<title>git_objects</title>
<polygon fill="white" stroke="none" points="-4,4 -4,-200 274,-200 274,4 -4,4"/>
<!-- commit -->
<g id="node1" class="node"><title>commit</title>
<ellipse fill="none" stroke="black" cx="135" cy="-178" rx="38.1938" ry="18"/>
<text text-anchor="middle" x="135" y="-174.3" font-family="Times New Roman,serif" font-size="14.00">commit</text>
</g>
<!-- tree -->
<g id="node2" class="node"><title>tree</title>
<ellipse fill="none" stroke="black" cx="135" cy="-105" rx="27" ry="18"/>
<text text-anchor="middle" x="135" y="-101.3" font-family="Times New Roman,serif" font-size="14.00">tree</text>
</g>
<!-- commit&#45;&gt;tree -->
<g id="edge1" class="edge"><title>commit&#45;&gt;tree</title>
<path fill="none" stroke="black" d="M135,-159.813C135,-151.789 135,-142.047 135,-133.069"/>
<polygon fill="black" stroke="black" points="138.5,-133.029 135,-123.029 131.5,-133.029 138.5,-133.029"/>
</g>
<!-- file1 -->
<g id="node3" class="node"><title>file1</title>
<ellipse fill="none" stroke="black" cx="27" cy="-18" rx="27" ry="18"/>
<text text-anchor="middle" x="27" y="-14.3" font-family="Times New Roman,serif" font-size="14.00">file1</text>
</g>
<!-- tree&#45;&gt;file1 -->
<g id="edge2" class="edge"><title>tree&#45;&gt;file1</title>
<path fill="none" stroke="black" d="M118.125,-90.7188C100.292,-76.6838 71.9906,-54.4092 51.6584,-38.4071"/>
<polygon fill="black" stroke="black" points="53.7793,-35.6223 43.7565,-32.188 49.45,-41.123 53.7793,-35.6223"/>
</g>
<!-- file2 -->
<g id="node4" class="node"><title>file2</title>
<ellipse fill="none" stroke="black" cx="99" cy="-18" rx="27" ry="18"/>
<text text-anchor="middle" x="99" y="-14.3" font-family="Times New Roman,serif" font-size="14.00">file2</text>
</g>
<!-- tree&#45;&gt;file2 -->
<g id="edge3" class="edge"><title>tree&#45;&gt;file2</title>
<path fill="none" stroke="black" d="M127.888,-87.2067C122.776,-75.1377 115.788,-58.6384 109.965,-44.8906"/>
<polygon fill="black" stroke="black" points="113.098,-43.3123 105.975,-35.4692 106.652,-46.0423 113.098,-43.3123"/>
</g>
<!-- file3 -->
<g id="node5" class="node"><title>file3</title>
<ellipse fill="none" stroke="black" cx="171" cy="-18" rx="27" ry="18"/>
<text text-anchor="middle" x="171" y="-14.3" font-family="Times New Roman,serif" font-size="14.00">file3</text>
</g>
<!-- tree&#45;&gt;file3 -->
<g id="edge4" class="edge"><title>tree&#45;&gt;file3</title>
<path fill="none" stroke="black" d="M142.112,-87.2067C147.224,-75.1377 154.212,-58.6384 160.035,-44.8906"/>
<polygon fill="black" stroke="black" points="163.348,-46.0423 164.025,-35.4692 156.902,-43.3123 163.348,-46.0423"/>
</g>
<!-- filen -->
<g id="node6" class="node"><title>filen</title>
<ellipse fill="none" stroke="black" cx="243" cy="-18" rx="27" ry="18"/>
<text text-anchor="middle" x="243" y="-14.3" font-family="Times New Roman,serif" font-size="14.00">filen</text>
</g>
<!-- tree&#45;&gt;filen -->
<g id="edge5" class="edge"><title>tree&#45;&gt;filen</title>
<path fill="none" stroke="black" d="M151.875,-90.7188C169.708,-76.6838 198.009,-54.4092 218.342,-38.4071"/>
<polygon fill="black" stroke="black" points="220.55,-41.123 226.243,-32.188 216.221,-35.6223 220.55,-41.123"/>
<text text-anchor="middle" x="211.5" y="-57.8" font-family="Times New Roman,serif" font-size="14.00">file[n]</text>
</g>
</g>
</svg>
